# xmcd
#
# Track frame offsets:
#	150
#	4838
#	12417
#	26588
#	45384
#	50360
#	65299
#	89430
#	110895
#	126541
#	131433
#	150172
#	173582
#	188677
#	214711
#	233663
#	255278
#
# Disc length: 3653
#
# Revision: 10
# Processed by: cddbd v1.5.1PL0 Copyright (c) Steve Scherf et al.
# Submitted via: CDex 1.51
# Normalized: r9:DSETVAR1,TDELIM( - )
#
DISCID=d30e4311
DTITLE=Various Artist - AnotherLateNight - Rae and Christian
DYEAR=2001
DGENRE=Downtempo
TTITLE0=Trendsetter - Heavy Worker
TTITLE1=The Boulevard Connection - Copenhagen Claimin' Respect
TTITLE2=Joshua - Come On
TTITLE3=Riton - Put That On My Momma
TTITLE4=Dubble D - Introlude
TTITLE5=Nash - 100 Million Ways
TTITLE6=Fumi - Straight No Filter (Only Child Remix)
TTITLE7=Zum - Take Ya Time
TTITLE8=Capoeira Twins - Four (4x3) (Mr Scruff Remix)
TTITLE9=Bushy vs Sonic Boo - I Pink I'm Going Squezy
TTITLE10=Pablo - Roll Call
TTITLE11=H2O - Got To Be Me (Timezone Dub)
TTITLE12=Armadozeski Therapy - Strudel Strut
TTITLE13=Faze Action - Samba (Rae and Christian Remix)
TTITLE14=Rae and Christian - Flashlight
TTITLE15=Rick James - Mary Jane
TTITLE16=Jose Feliciano - California Dreamin'
EXTD=YEAR: 2001
EXTT0=
EXTT1=
EXTT2=
EXTT3=
EXTT4=
EXTT5=
EXTT6=
EXTT7=
EXTT8=
EXTT9=
EXTT10=
EXTT11=
EXTT12=
EXTT13=
EXTT14=
EXTT15=
EXTT16=
PLAYORDER=
